<?xml version="1.0" encoding="UTF-8" ?>
<!DOCTYPE svg PUBLIC "-//W3C//DTD SVG 1.1//EN" "http://www.w3.org/Graphics/SVG/1.1/DTD/svg11.dtd">
<svg width="500pt" height="500pt" viewBox="0 0 500 500" version="1.1" xmlns="http://www.w3.org/2000/svg">
<g id="#f7f8f9ff">
<path fill="#f7f8f9" opacity="1.00" d=" M 244.80 0.00 L 254.72 0.00 C 287.70 0.82 320.56 7.89 350.74 21.28 C 400.05 42.84 441.90 80.93 468.09 127.94 C 488.13 163.49 498.95 204.04 500.00 244.80 L 500.00 254.89 C 498.98 297.45 487.23 339.77 465.58 376.47 C 444.36 412.68 413.83 443.40 377.74 464.82 C 340.84 486.90 298.15 498.91 255.21 500.00 L 245.18 500.00 C 200.55 498.96 156.17 486.07 118.27 462.39 C 67.90 431.31 29.27 381.74 11.66 325.21 C 4.35 302.31 0.61 278.34 0.00 254.33 L 0.00 245.20 C 0.59 226.99 2.72 208.80 7.10 191.10 C 17.06 149.97 37.61 111.38 66.48 80.41 C 87.50 57.55 112.88 38.73 140.81 25.16 C 173.14 9.41 208.87 0.95 244.80 0.00 M 237.34 195.34 C 227.98 185.85 218.48 176.49 209.10 167.02 C 203.27 172.88 197.39 178.70 191.58 184.59 C 210.99 203.78 230.17 223.19 249.53 242.43 C 268.97 223.36 287.98 203.84 307.43 184.77 C 301.99 178.53 295.81 172.98 290.04 167.05 C 280.63 176.36 271.41 185.88 261.87 195.07 C 262.27 183.05 261.78 171.03 262.12 159.01 C 261.42 147.35 262.17 135.66 261.97 123.99 C 262.55 116.91 261.33 109.84 262.19 102.78 C 261.95 102.56 261.47 102.14 261.23 101.93 C 253.31 101.74 245.39 102.00 237.47 101.81 C 237.15 132.98 237.42 164.17 237.34 195.34 M 150.70 274.58 C 150.67 279.05 151.33 283.52 150.81 287.99 C 150.98 291.76 150.06 295.79 151.69 299.33 C 157.79 298.49 163.91 299.71 170.01 298.93 C 175.34 298.20 180.68 299.75 186.00 298.92 C 190.69 298.31 195.37 299.67 200.06 299.15 C 204.38 298.61 208.70 299.65 213.01 298.93 C 219.02 299.22 225.06 299.46 231.07 298.88 C 235.71 299.58 240.35 298.40 244.99 299.17 C 252.99 298.74 261.00 299.49 268.99 298.75 C 278.99 299.98 289.03 298.34 299.04 299.20 C 312.69 299.23 326.34 299.33 339.98 298.90 C 342.77 298.81 345.76 299.96 348.37 298.48 C 348.12 290.42 348.38 282.35 348.23 274.29 C 338.16 273.47 328.02 273.61 317.95 274.22 C 310.30 273.43 302.61 273.92 294.94 273.77 C 280.31 274.16 265.70 273.67 251.07 273.99 C 244.74 273.55 238.39 273.74 232.08 274.15 C 221.75 273.18 211.38 274.32 201.05 273.76 C 188.01 273.42 175.00 274.70 161.96 274.07 C 158.20 273.57 154.39 273.70 150.70 274.58 M 101.70 323.53 C 101.87 348.10 101.79 372.68 101.74 397.25 C 200.25 397.18 298.75 397.19 397.25 397.25 C 397.10 372.59 397.37 347.92 397.11 323.26 C 388.89 322.47 380.58 322.57 372.36 323.30 C 372.44 339.66 372.37 356.02 372.40 372.38 C 290.67 372.41 208.93 372.40 127.19 372.39 C 127.34 356.09 126.57 339.90 127.30 323.63 C 122.91 322.95 118.44 322.60 114.02 322.98 C 109.93 323.20 105.62 321.92 101.70 323.53 M 150.70 323.66 C 151.36 331.88 150.30 340.27 151.49 348.35 C 217.09 348.17 282.69 348.29 348.30 348.29 C 348.21 339.93 348.32 331.56 348.24 323.20 C 344.19 322.43 340.07 322.80 336.00 323.04 C 319.01 322.29 302.06 323.42 285.07 323.13 C 280.72 322.37 276.36 323.69 272.01 322.95 C 261.00 322.35 249.97 323.25 238.97 322.77 C 231.96 322.74 224.97 323.07 217.96 322.99 C 211.65 322.34 205.34 323.44 199.02 322.73 C 193.03 323.35 187.06 322.75 181.06 322.99 C 172.38 322.21 163.66 323.59 154.99 322.82 C 153.48 322.50 152.07 323.12 150.70 323.66 Z" />
</g>
<g id="#157efbff">
<path fill="#157efb" opacity="1.00" d=" M 237.34 195.34 C 237.42 164.17 237.15 132.98 237.47 101.81 C 245.39 102.00 253.31 101.74 261.23 101.93 C 261.47 102.14 261.95 102.56 262.19 102.78 C 261.33 109.84 262.55 116.91 261.97 123.99 C 262.17 135.66 261.42 147.35 262.12 159.01 C 261.78 171.03 262.27 183.05 261.87 195.07 C 271.41 185.88 280.63 176.36 290.04 167.05 C 295.81 172.98 301.99 178.53 307.43 184.77 C 287.98 203.84 268.97 223.36 249.53 242.43 C 230.17 223.19 210.99 203.78 191.58 184.59 C 197.39 178.70 203.27 172.88 209.10 167.02 C 218.48 176.49 227.98 185.85 237.34 195.34 Z" />
</g>
<g id="#7f8c8dff">
<path fill="#7f8c8d" opacity="1.00" d=" M 150.70 274.58 C 154.39 273.70 158.20 273.57 161.96 274.07 C 175.00 274.70 188.01 273.42 201.05 273.76 C 211.38 274.32 221.75 273.18 232.08 274.15 C 238.39 273.74 244.74 273.55 251.07 273.99 C 265.70 273.67 280.31 274.16 294.94 273.77 C 302.61 273.92 310.30 273.43 317.95 274.22 C 328.02 273.61 338.16 273.47 348.23 274.29 C 348.38 282.35 348.12 290.42 348.37 298.48 C 345.76 299.96 342.77 298.81 339.98 298.90 C 326.34 299.33 312.69 299.23 299.04 299.20 C 289.03 298.34 278.99 299.98 268.99 298.75 C 261.00 299.49 252.99 298.74 244.99 299.17 C 240.35 298.40 235.71 299.58 231.07 298.88 C 225.06 299.46 219.02 299.22 213.01 298.93 C 208.70 299.65 204.38 298.61 200.06 299.15 C 195.37 299.67 190.69 298.31 186.00 298.92 C 180.68 299.75 175.34 298.20 170.01 298.93 C 163.91 299.71 157.79 298.49 151.69 299.33 C 150.06 295.79 150.98 291.76 150.81 287.99 C 151.33 283.52 150.67 279.05 150.70 274.58 Z" />
<path fill="#7f8c8d" opacity="1.00" d=" M 101.70 323.53 C 105.62 321.92 109.93 323.20 114.02 322.98 C 118.44 322.60 122.91 322.95 127.30 323.63 C 126.57 339.90 127.34 356.09 127.19 372.39 C 208.93 372.40 290.67 372.41 372.40 372.38 C 372.37 356.02 372.44 339.66 372.36 323.30 C 380.58 322.57 388.89 322.47 397.11 323.26 C 397.37 347.92 397.10 372.59 397.25 397.25 C 298.75 397.19 200.25 397.18 101.74 397.25 C 101.79 372.68 101.87 348.10 101.70 323.53 Z" />
<path fill="#7f8c8d" opacity="1.00" d=" M 150.70 323.66 C 152.07 323.12 153.48 322.50 154.99 322.82 C 163.66 323.59 172.38 322.21 181.06 322.99 C 187.06 322.75 193.03 323.35 199.02 322.73 C 205.34 323.44 211.65 322.34 217.96 322.99 C 224.97 323.07 231.96 322.74 238.97 322.77 C 249.97 323.25 261.00 322.35 272.01 322.95 C 276.36 323.69 280.72 322.37 285.07 323.13 C 302.06 323.42 319.01 322.29 336.00 323.04 C 340.07 322.80 344.19 322.43 348.24 323.20 C 348.32 331.56 348.21 339.93 348.30 348.29 C 282.69 348.29 217.09 348.17 151.49 348.35 C 150.30 340.27 151.36 331.88 150.70 323.66 Z" />
</g>
</svg>
