<?xml version="1.0" encoding="UTF-8" ?>
<!DOCTYPE svg PUBLIC "-//W3C//DTD SVG 1.1//EN" "http://www.w3.org/Graphics/SVG/1.1/DTD/svg11.dtd">
<svg width="500pt" height="500pt" viewBox="0 0 500 500" version="1.1" xmlns="http://www.w3.org/2000/svg">
<g id="#f7f8f9ff">
<path fill="#f7f8f9" opacity="1.00" d=" M 244.79 0.00 L 255.56 0.00 C 312.08 1.38 368.02 22.26 411.10 58.96 C 437.37 81.09 459.03 108.68 474.20 139.52 C 490.35 172.17 499.04 208.38 500.00 244.77 L 500.00 254.94 C 498.99 295.82 488.16 336.49 468.04 372.14 C 451.36 402.06 428.32 428.36 401.08 449.10 C 359.21 481.08 307.01 498.99 254.37 500.00 L 245.17 500.00 C 204.76 499.02 164.54 488.45 129.18 468.78 C 95.62 450.31 66.50 423.92 44.65 392.47 C 16.69 352.43 1.20 304.04 0.00 255.26 L 0.00 245.07 C 1.22 188.11 22.29 131.68 59.41 88.38 C 89.43 52.82 129.63 25.95 174.02 11.91 C 196.87 4.51 220.81 0.74 244.79 0.00 M 137.14 85.10 C 127.57 86.46 119.94 95.34 119.78 104.97 C 119.78 201.64 119.81 298.32 119.77 394.99 C 119.27 405.65 128.20 415.84 138.97 416.21 C 213.00 416.22 287.04 416.20 361.07 416.22 C 371.14 415.93 379.97 407.06 380.22 397.00 C 380.21 325.65 380.20 254.31 380.23 182.97 C 380.49 181.01 379.48 179.23 378.09 177.94 C 347.75 147.57 317.43 117.16 287.08 86.81 C 285.61 85.11 283.19 84.94 281.12 84.79 C 235.77 84.79 190.42 84.79 145.07 84.79 C 142.43 84.82 139.75 84.58 137.14 85.10 Z" />
<path fill="#f7f8f9" opacity="1.00" d=" M 131.38 105.91 C 130.93 100.72 135.76 95.94 140.94 96.39 C 185.28 96.39 229.62 96.39 273.97 96.39 C 276.46 96.38 278.97 96.30 281.45 96.60 C 281.59 119.05 281.47 141.50 281.51 163.95 C 281.55 174.17 290.65 183.72 300.99 183.60 C 323.35 183.70 345.72 183.51 368.07 183.69 C 368.37 184.00 368.95 184.63 369.24 184.94 C 369.39 254.62 369.23 324.30 369.31 393.98 C 369.70 399.16 365.52 404.79 360.08 404.68 C 286.70 404.69 213.31 404.69 139.92 404.68 C 135.40 404.74 131.38 400.52 131.40 396.04 C 131.36 299.34 131.40 202.62 131.38 105.91 M 238.71 213.96 C 236.94 221.26 243.51 229.04 250.99 228.44 C 255.78 228.06 259.58 224.40 261.35 220.12 C 263.11 213.35 258.19 205.48 250.91 205.49 C 245.32 204.69 240.59 209.07 238.71 213.96 M 239.91 238.87 C 239.37 257.88 239.83 277.04 239.68 296.11 C 246.57 296.50 253.47 296.16 260.37 296.29 C 260.41 277.06 260.37 257.83 260.39 238.60 C 253.57 238.78 246.64 238.23 239.91 238.87 Z" />
<path fill="#f7f8f9" opacity="1.00" d=" M 293.16 108.74 C 313.94 130.18 335.31 151.08 356.37 172.25 C 338.26 172.36 320.14 172.27 302.03 172.30 C 297.61 172.33 293.10 168.64 293.25 164.03 C 293.18 145.60 293.35 127.17 293.16 108.74 Z" />
</g>
<g id="#7f8c8dff">
<path fill="#7f8c8d" opacity="1.00" d=" M 137.14 85.10 C 139.75 84.58 142.43 84.82 145.07 84.79 C 190.42 84.79 235.77 84.79 281.12 84.79 C 283.19 84.94 285.61 85.11 287.08 86.81 C 317.43 117.16 347.75 147.57 378.09 177.94 C 379.48 179.23 380.49 181.01 380.23 182.97 C 380.20 254.31 380.21 325.65 380.22 397.00 C 379.97 407.06 371.14 415.93 361.07 416.22 C 287.04 416.20 213.00 416.22 138.97 416.21 C 128.20 415.84 119.27 405.65 119.77 394.99 C 119.81 298.32 119.78 201.64 119.78 104.97 C 119.94 95.34 127.57 86.46 137.14 85.10 M 131.38 105.91 C 131.40 202.62 131.36 299.34 131.40 396.04 C 131.38 400.52 135.40 404.74 139.92 404.68 C 213.31 404.69 286.70 404.69 360.08 404.68 C 365.52 404.79 369.70 399.16 369.31 393.98 C 369.23 324.30 369.39 254.62 369.24 184.94 C 368.95 184.63 368.37 184.00 368.07 183.69 C 345.72 183.51 323.35 183.70 300.99 183.60 C 290.65 183.72 281.55 174.17 281.51 163.95 C 281.47 141.50 281.59 119.05 281.45 96.60 C 278.97 96.30 276.46 96.38 273.97 96.39 C 229.62 96.39 185.28 96.39 140.94 96.39 C 135.76 95.94 130.93 100.72 131.38 105.91 M 293.16 108.74 C 293.35 127.17 293.18 145.60 293.25 164.03 C 293.10 168.64 297.61 172.33 302.03 172.30 C 320.14 172.27 338.26 172.36 356.37 172.25 C 335.31 151.08 313.94 130.18 293.16 108.74 Z" />
</g>
<g id="#157efbff">
<path fill="#157efb" opacity="1.00" d=" M 238.71 213.96 C 240.59 209.07 245.32 204.69 250.91 205.49 C 258.19 205.48 263.11 213.35 261.35 220.12 C 259.58 224.40 255.78 228.06 250.99 228.44 C 243.51 229.04 236.94 221.26 238.71 213.96 Z" />
<path fill="#157efb" opacity="1.00" d=" M 239.91 238.87 C 246.64 238.23 253.57 238.78 260.39 238.60 C 260.37 257.83 260.41 277.06 260.37 296.29 C 253.47 296.16 246.57 296.50 239.68 296.11 C 239.83 277.04 239.37 257.88 239.91 238.87 Z" />
</g>
</svg>
