<?xml version="1.0" encoding="UTF-8"?>
<svg width="71px" height="80px" viewBox="0 0 71 80" version="1.1" xmlns="http://www.w3.org/2000/svg" xmlns:xlink="http://www.w3.org/1999/xlink">
    <!-- Generator: Sketch 55.2 (78181) - https://sketchapp.com -->
    <title>Atomic Dex</title>
    <desc>Created with Sketch.</desc>
    <g id="Final" stroke="none" stroke-width="1" fill="none" fill-rule="evenodd">
        <g id="Home_Final" transform="translate(-741.000000, -4905.000000)">
            <g id="Products" transform="translate(80.000000, 4784.000000)">
                <g id="Atomic-Dex" transform="translate(661.000000, 121.000000)">
                    <path d="M49.2360995,45.4725219 C49.2360995,43.5623842 47.6875906,42.01373 45.7773076,42.01373 C43.86717,42.01373 42.318661,43.5623842 42.318661,45.4725219 C42.318661,47.3826595 43.86717,48.9313138 45.7773076,48.9313138 C47.6875906,48.9313138 49.2360995,47.3826595 49.2360995,45.4725219" id="Path" fill="#41EAD4"></path>
                    <path d="M24.2110733,57.6799971 C24.2110733,55.7697141 22.6625643,54.2212052 20.7522814,54.2212052 C18.8421437,54.2212052 17.2934895,55.7697141 17.2934895,57.6799971 C17.2934895,59.5901348 18.8421437,61.1386437 20.7522814,61.1386437 C22.6625643,61.1386437 24.2110733,59.5901348 24.2110733,57.6799971" id="Path" fill="#41EAD4"></path>
                    <path d="M40.6845758,39.6604555 C40.4076516,39.4970034 40.1294198,39.3341324 39.8490086,39.1721332 C35.7458522,36.8033126 31.5922799,34.8028041 27.5036525,33.2263993 C26.8219483,32.9634231 26.0568471,33.3031129 25.7938708,33.9846718 C25.5313304,34.6660855 25.8707297,35.4316225 26.5521433,35.6943082 C30.5132054,37.2216047 34.5419729,39.1622535 38.5264268,41.4626421 C38.7991376,41.6201373 39.0698143,41.7785042 39.339038,41.9377429 C39.5502908,42.0624024 39.7818843,42.121681 40.010572,42.121681 C40.4628621,42.121681 40.903529,41.8895064 41.150378,41.4719407 C41.5218865,40.8431223 41.3133942,40.0321093 40.6845758,39.6604555" id="Path" fill="#41EAD4"></path>
                    <path d="M52.9527825,48.3757219 C52.3992247,47.8993135 51.5642387,47.9616432 51.087685,48.5149105 C50.6111313,49.0684683 50.6736063,49.9034543 51.2270188,50.380008 C59.3197143,57.3482983 63.4312976,64.3267589 61.4579584,67.7444335 C60.0925159,70.1094766 55.8016438,70.8609204 49.6857744,69.8066906 C47.553923,69.439105 45.2859342,68.8672406 42.9322239,68.1144891 C44.44935,63.9009117 45.6045569,58.7683702 46.3148834,53.020377 C46.4043825,52.2955214 45.8893268,51.6351749 45.1646165,51.5456758 C44.4399061,51.4561767 43.779269,51.9710871 43.6897699,52.6959428 C43.00022,58.2771421 41.8862757,63.229959 40.4298811,67.2581454 C36.1791093,65.7073118 31.7117089,63.6077149 27.2932715,61.0612037 C26.6603849,60.6965239 25.8518419,60.9138789 25.4870168,61.5467655 C25.1223369,62.1795067 25.3396919,62.9881951 25.9725785,63.3528749 C30.4912665,65.9572119 35.0730107,68.1124551 39.4497496,69.7148669 C39.3069288,70.0375577 39.1622192,70.3541462 39.0143132,70.660855 C37.0090101,74.8196578 34.6782557,77.1098761 32.4510936,77.1098761 C29.2289803,77.1098761 25.9172227,72.4190186 23.5922799,64.5618394 C23.3848047,63.8612473 22.6494882,63.4614071 21.9487508,63.6688824 C21.2484493,63.8762123 20.8487545,64.6118194 21.0559391,65.3122662 C23.8119596,74.6256947 27.8587432,79.7548945 32.4510936,79.7548945 C35.7971398,79.7548945 38.8903802,77.0074462 41.3967911,71.8095238 C41.5879938,71.41288 41.7736754,70.9992372 41.9565964,70.5783299 C44.4911938,71.3970433 46.9367279,72.0167084 49.2363901,72.4132069 C51.1659967,72.7457775 52.9434839,72.9102466 54.5518526,72.9102466 C59.093206,72.9102466 62.2861158,71.5995787 63.7486126,69.0670154 C66.5002743,64.3008972 62.4645328,56.5659075 52.9527825,48.3757219" id="Path" fill="#26456B"></path>
                    <path d="M69.2769261,18.2498275 C67.2860068,14.8016418 61.9275382,13.9001126 53.780504,15.6430206 C50.9858361,16.2410374 47.9799156,17.1302168 44.8480279,18.2743816 C44.2944701,15.8651702 43.6456015,13.6149068 42.906798,11.5692129 C40.1732976,4.00072645 36.557737,-4.26325641e-14 32.4510936,-4.26325641e-14 C25.1021415,-4.26325641e-14 20.6167251,12.7261632 18.8698943,24.6359377 C18.763832,25.3586139 19.2637775,26.0304384 19.9864538,26.1363554 C20.7092753,26.2419818 21.3806639,25.7424721 21.4867262,25.0197959 C23.4192386,11.8459918 27.9279016,2.64501834 32.4510936,2.64501834 C35.2604358,2.64501834 38.1646528,6.22527333 40.4191296,12.4678363 C41.1601125,14.5190513 41.8070922,16.7890741 42.354112,19.2283608 C37.7553687,21.0667248 32.9413046,23.4166576 28.1650161,26.1742763 C27.3858217,26.6239512 26.5842526,27.0993426 25.7825382,27.5869384 C25.1586596,27.9665831 24.960483,28.7800661 25.3399825,29.4040899 C25.7196273,30.0281138 26.532965,30.2262904 27.1571341,29.8466456 C27.9415589,29.3695107 28.7255478,28.9047256 29.4874526,28.4647852 C34.1852841,25.7524972 38.708912,23.5588972 42.8940124,21.8636446 C43.8134124,26.8035306 44.34692,32.3184774 44.4397608,38.0680687 C44.4513841,38.7911809 45.0412646,39.3692928 45.7616162,39.3692928 C45.7688807,39.3692928 45.7762906,39.3691475 45.7834098,39.3690022 C46.5137865,39.3572337 47.0961119,38.7557299 47.0843433,38.0253532 C46.9861267,31.9466783 46.4039467,26.109186 45.3998422,20.892957 C56.7455978,16.6992844 65.1572065,16.4043442 66.9862719,19.572264 C67.9892141,21.3095056 67.1071539,24.2684973 64.5022358,27.9042534 C61.6772022,31.84759 57.1182687,36.2153209 51.3184067,40.5355418 C50.7327396,40.9718499 50.6117124,41.8005884 51.0480206,42.3862555 C51.3075099,42.734808 51.7058972,42.9188914 52.1095149,42.9188914 C52.3842597,42.9188914 52.6613292,42.8334605 52.898589,42.6567869 C58.9142078,38.1755839 63.6704462,33.6069158 66.6523938,29.4447713 C68.9481331,26.2402383 71.267119,21.6969961 69.2769261,18.2498275" id="Path" fill="#26456B"></path>
                    <path d="M38.9859815,48.4788784 C35.0641479,50.665359 31.1335969,52.5664887 27.3035872,54.1295267 C26.6274039,54.4054339 26.3028244,55.177509 26.5788768,55.8536922 C26.7879502,56.366278 27.2820841,56.6767644 27.803678,56.6767644 C27.9700359,56.6767644 28.1392996,56.645091 28.302897,56.5782572 C32.2314139,54.9752642 36.2591645,53.027351 40.2738388,50.7891468 C40.9118106,50.433475 41.1406435,49.627983 40.785117,48.9901566 C40.4294452,48.3521848 39.6239532,48.1234971 38.9859815,48.4788784" id="Path" fill="#41EAD4"></path>
                    <path d="M19.1289477,38.3063456 L19.1257513,38.3063456 C18.3968275,38.3063456 17.8050583,38.8962261 17.8033148,39.6255857 L17.8021525,39.8775199 C17.8021525,43.4711416 17.9714162,47.034107 18.3051491,50.4677636 C18.3716922,51.1512114 18.947189,51.6623443 19.6198852,51.6623443 C19.662746,51.6623443 19.7060426,51.6603102 19.7494845,51.6560968 C20.4765195,51.5853402 21.008429,50.938651 20.9376724,50.2117613 C20.6120758,46.8629545 20.4471708,43.3860012 20.4471708,39.8775199 L20.4481878,39.6319785 C20.4499313,38.9014565 19.8593244,38.3079438 19.1289477,38.3063456" id="Path" fill="#41EAD4"></path>
                    <path d="M15.2919639,52.7539138 C12.2447808,50.2059497 9.72602013,47.6559515 7.82881335,45.2654825 C9.72282373,43.1198286 12.173443,40.7591442 15.2546242,38.2268715 C15.8189335,37.7629581 15.9004417,36.9297156 15.4365283,36.3654063 C14.9729054,35.8012422 14.1395176,35.7198794 13.5752083,36.1835022 C10.6897338,38.5549381 8.23780685,40.8713087 6.24049474,43.084087 C3.96248087,39.6255857 3.19752501,36.6542443 4.30028189,34.7443972 C5.36933132,32.8923759 8.29926484,32.0107515 12.551199,32.2632669 C13.2796869,32.3065635 13.9063259,31.7505358 13.9496226,31.0213214 C13.992774,30.2923977 13.4368915,29.6661945 12.7076772,29.6228978 C7.32741493,29.3034034 3.6286027,30.617849 2.00962773,33.4219607 C0.98590902,35.1950892 0.383533519,38.3646072 3.32683379,43.3961716 C3.66768591,43.9790781 4.05096295,44.5720097 4.4669304,45.1716247 C0.373363166,50.323054 -1.00951431,54.7746177 0.746324553,57.8159892 C2.06919695,60.1073699 4.92808328,61.2768152 9.11885003,61.2768152 C10.523957,61.2768152 12.0788587,61.1453271 13.7757096,60.8806073 C14.4973688,60.7678617 14.9910668,60.0915332 14.8784664,59.369874 C14.7658661,58.64836 14.089247,58.1553885 13.3678784,58.2672624 C7.94184956,59.1140169 4.17649416,58.467473 3.03683342,56.4934074 C2.05219793,54.7879845 2.86742439,51.5908612 6.11133125,47.3480803 C8.09643894,49.7817006 10.6229,52.2975555 13.5952584,54.7828993 C13.8428339,54.9899386 14.1437311,55.0909157 14.4428847,55.0909157 C14.8210766,55.0909157 15.1966532,54.9296429 15.4581766,54.6168319 C15.926594,54.0564455 15.8523504,53.2224765 15.2919639,52.7539138" id="Path" fill="#26456B"></path>
                    <path d="M16.4797159,32.2480113 C16.4797159,30.3377284 18.0282249,28.7892194 19.9385078,28.7892194 C21.8486455,28.7892194 23.3971544,30.3377284 23.3971544,32.2480113 C23.3971544,34.158149 21.8486455,35.7066579 19.9385078,35.7066579 C18.0282249,35.7066579 16.4797159,34.158149 16.4797159,32.2480113" id="Path" fill="#41EAD4"></path>
                </g>
            </g>
        </g>
    </g>
</svg>