<?xml version="1.0" encoding="utf-8"?>
<!-- Generator: Adobe Illustrator 23.0.2, SVG Export Plug-In . SVG Version: 6.00 Build 0)  -->
<svg version="1.1" id="BitTube_x5F_Grey" xmlns="http://www.w3.org/2000/svg" xmlns:xlink="http://www.w3.org/1999/xlink" x="0px"
	 y="0px" viewBox="0 0 300 300" style="enable-background:new 0 0 300 300;" xml:space="preserve">
<style type="text/css">
	.st0{fill:#343434;}
	.st1{fill:#FFFFFF;}
</style>
<g>
	<g>
		<g>
			<path class="st0" d="M256.565,43.934C228.231,15.603,190.563,0,150.5,0C110.433,0,72.765,15.603,44.434,43.934
				S0.499,109.933,0.499,150c0,40.07,15.603,77.738,43.934,106.066C72.761,284.397,110.429,300,150.5,300
				c40.07,0,77.738-15.603,106.066-43.934c28.331-28.331,43.934-65.999,43.934-106.066
				C300.499,109.937,284.896,72.269,256.565,43.934z"/>
		</g>
		<g>
			<path class="st1" d="M213.716,142.278l-89.381-54.596c-3.007-1.629-6.557-1.564-9.492,0.193c-2.938,1.75-4.691,4.833-4.691,8.252
				v108.697c0,3.423,1.753,6.51,4.691,8.252c1.494,0.893,3.193,1.363,4.91,1.363c1.578,0,3.164-0.405,4.739-1.261l89.188-54.162
				c3.029-1.699,4.91-4.91,4.91-8.38C218.589,147.177,216.723,143.976,213.716,142.278z M206.054,150.629l-84.774,51.498V98.854
				L206.054,150.629z"/>
			<path class="st1" d="M150.499,53.614c-3.069,0-5.562,2.493-5.562,5.563s2.493,5.566,5.562,5.566
				c31.29,0,60.017,17.099,74.973,44.623c0.973,1.793,2.847,2.909,4.892,2.909c0.922,0,1.84-0.233,2.654-0.678
				c1.305-0.707,2.256-1.884,2.679-3.31c0.423-1.425,0.262-2.931-0.448-4.232C218.349,72.94,185.875,53.614,150.499,53.614z"/>
			<path class="st1" d="M239.151,61.349c-23.679-23.678-55.161-36.721-88.653-36.721c-33.487,0-64.97,13.039-88.656,36.717
				c-23.678,23.682-36.717,55.165-36.717,88.656c0,33.491,13.039,64.974,36.717,88.656c23.686,23.679,55.169,36.717,88.656,36.717
				c33.488,0,64.971-13.039,88.653-36.717c23.678-23.682,36.72-55.169,36.72-88.656C275.872,116.511,262.83,85.028,239.151,61.349z
				 M264.743,150.002c0,30.513-11.883,59.204-33.462,80.782c-21.579,21.579-50.269,33.462-80.783,33.462
				c-30.517,0-59.207-11.883-80.782-33.462c-21.579-21.582-33.466-50.269-33.466-80.782c0-30.513,11.887-59.2,33.466-80.783
				c21.575-21.579,50.266-33.462,80.782-33.462c30.513,0,59.204,11.883,80.783,33.462
				C252.86,90.798,264.743,119.488,264.743,150.002z"/>
		</g>
	</g>
</g>
</svg>
