<?xml version="1.0" encoding="UTF-8" standalone="no"?>
<!-- Created with Inkscape (http://www.inkscape.org/) -->

<svg
   xmlns:dc="http://purl.org/dc/elements/1.1/"
   xmlns:cc="http://creativecommons.org/ns#"
   xmlns:rdf="http://www.w3.org/1999/02/22-rdf-syntax-ns#"
   xmlns:svg="http://www.w3.org/2000/svg"
   xmlns="http://www.w3.org/2000/svg"
   xmlns:sodipodi="http://sodipodi.sourceforge.net/DTD/sodipodi-0.dtd"
   xmlns:inkscape="http://www.inkscape.org/namespaces/inkscape"
   width="11.493064mm"
   height="11.209466mm"
   viewBox="0 0 11.493064 11.209466"
   version="1.1"
   id="svg820"
   inkscape:version="0.92.4 (5da689c313, 2019-01-14)"
   sodipodi:docname="github.svg">
  <defs
     id="defs814" />
  <sodipodi:namedview
     id="base"
     pagecolor="#ffffff"
     bordercolor="#666666"
     borderopacity="1.0"
     inkscape:pageopacity="0.0"
     inkscape:pageshadow="2"
     inkscape:zoom="7.9195959"
     inkscape:cx="20.625259"
     inkscape:cy="5.9526797"
     inkscape:document-units="mm"
     inkscape:current-layer="layer1"
     showgrid="false"
     inkscape:window-width="1680"
     inkscape:window-height="987"
     inkscape:window-x="-8"
     inkscape:window-y="-8"
     inkscape:window-maximized="1" />
  <metadata
     id="metadata817">
    <rdf:RDF>
      <cc:Work
         rdf:about="">
        <dc:format>image/svg+xml</dc:format>
        <dc:type
           rdf:resource="http://purl.org/dc/dcmitype/StillImage" />
        <dc:title></dc:title>
      </cc:Work>
    </rdf:RDF>
  </metadata>
  <g
     inkscape:label="Layer 1"
     inkscape:groupmode="layer"
     id="layer1"
     transform="translate(-86.857593,-143.2286)">
    <path
       d="m 92.603638,143.2286 c -3.173237,0 -5.746045,2.57281 -5.746045,5.74675 0,2.53894 1.646414,4.69265 3.929945,5.45289 0.287513,0.0526 0.392288,-0.12489 0.392288,-0.27729 0,-0.13617 -0.0049,-0.49777 -0.0078,-0.97719 -1.598436,0.34713 -1.935691,-0.77047 -1.935691,-0.77047 -0.261409,-0.66357 -0.638175,-0.84032 -0.638175,-0.84032 -0.521759,-0.35665 0.03951,-0.3496 0.03951,-0.3496 0.576791,0.0409 0.88018,0.59232 0.88018,0.59232 0.512587,0.87806 1.345142,0.62441 1.67252,0.47766 0.05221,-0.37148 0.200378,-0.62477 0.364772,-0.76835 -1.275997,-0.14499 -2.617611,-0.63818 -2.617611,-2.84022 0,-0.62724 0.224014,-1.14017 0.591608,-1.54199 -0.05927,-0.14534 -0.256469,-0.72954 0.05609,-1.52082 0,0 0.4826,-0.15452 1.580444,0.58914 0.458259,-0.12736 0.950031,-0.19121 1.438628,-0.19333 0.487892,0.002 0.979664,0.066 1.438628,0.19333 1.097139,-0.74366 1.57868,-0.58914 1.57868,-0.58914 0.31362,0.79128 0.116417,1.37548 0.05715,1.52082 0.3683,0.40182 0.590903,0.91475 0.590903,1.54199 0,2.20769 -1.34373,2.69346 -2.623961,2.83563 0.206375,0.17745 0.390172,0.52811 0.390172,1.06433 0,0.768 -0.0071,1.38783 -0.0071,1.57621 0,0.15381 0.103364,0.33267 0.395112,0.27658 2.281769,-0.76165 3.926772,-2.91394 3.926772,-5.45218 0,-3.17394 -2.573161,-5.74675 -5.747102,-5.74675"
       style="fill:#1b1817;fill-opacity:1;fill-rule:evenodd;stroke:none;stroke-width:0.35277775"
       id="path803"
       inkscape:connector-curvature="0" />
  </g>
</svg>
