<?xml version="1.0" encoding="UTF-8" standalone="no"?>
<svg
   xmlns:dc="http://purl.org/dc/elements/1.1/"
   xmlns:cc="http://creativecommons.org/ns#"
   xmlns:rdf="http://www.w3.org/1999/02/22-rdf-syntax-ns#"
   xmlns:svg="http://www.w3.org/2000/svg"
   xmlns="http://www.w3.org/2000/svg"
   viewBox="0 0 438.45001 438.45001"
   height="438.45001"
   width="438.45001"
   xml:space="preserve"
   version="1.1"
   id="svg2"><metadata
     id="metadata8"><rdf:RDF><cc:Work
         rdf:about=""><dc:format>image/svg+xml</dc:format><dc:type
           rdf:resource="http://purl.org/dc/dcmitype/StillImage" /><dc:title></dc:title></cc:Work></rdf:RDF></metadata><defs
     id="defs6" /><g
     transform="matrix(1.25,0,0,-1.25,0,438.45)"
     id="g10"><path
       id="path14"
       transform="matrix(0.8,0,0,-0.8,0,350.76)"
       d="M 219.51562 -0.001953125 L 219.22656 0.1171875 L 64.414062 64.003906 L 64.082031 64.800781 L 0 218.93555 L 64.005859 374.03711 L 218.9375 438.44922 L 219.22656 438.33203 L 374.03906 374.44531 L 438.45312 219.51172 L 374.44727 64.412109 L 374.28906 64.345703 L 219.51562 -0.001953125 z M 219.4082 80.710938 L 317.24805 121.38867 L 317.29883 121.41016 L 357.73828 219.40625 L 317.03906 317.29688 L 219.22656 357.66211 L 219.04297 357.73633 L 121.1543 317.03711 L 80.714844 219.04102 L 121.125 121.8418 L 121.41211 121.15039 L 219.22656 80.787109 L 219.4082 80.710938 z M 219.33398 138.19727 L 219.22656 138.24219 L 162.00781 161.85352 L 138.19922 219.11719 L 161.85547 276.44336 L 219.11914 300.25 L 219.22656 300.20703 L 276.44531 276.59375 L 300.25391 219.33008 L 276.5957 162.00586 L 219.33398 138.19727 z "
       style="fill:#54f5c0;fill-opacity:1;fill-rule:nonzero;stroke:none" /></g></svg>