<svg xmlns="http://www.w3.org/2000/svg" width="1440" height="900"><path d="M607,618L901,847L816,645Z" fill="#3776b2" stroke="#3776b2" stroke-width="1.51"/><path d="M607,618L653,1063L901,847Z" fill="#3574b0" stroke="#3574b0" stroke-width="1.51"/><path d="M184,911L532,1168L653,1063Z" fill="#3475b0" stroke="#3475b0" stroke-width="1.51"/><path d="M901,847L1104,511L816,645Z" fill="#3575b1" stroke="#3575b1" stroke-width="1.51"/><path d="M1001,1191L1124,951L901,847Z" fill="#2c6eaa" stroke="#2c6eaa" stroke-width="1.51"/><path d="M1001,1191L901,847L653,1063Z" fill="#2e70ac" stroke="#2e70ac" stroke-width="1.51"/><path d="M532,1168L1001,1191L653,1063Z" fill="#2e70ab" stroke="#2e70ab" stroke-width="1.51"/><path d="M607,618L184,911L653,1063Z" fill="#3877b3" stroke="#3877b3" stroke-width="1.51"/><path d="M587,204L293,525L607,618Z" fill="#417eba" stroke="#417eba" stroke-width="1.51"/><path d="M293,525L184,911L607,618Z" fill="#3e7bb8" stroke="#3e7bb8" stroke-width="1.51"/><path d="M816,645L826,238L607,618Z" fill="#3c79b6" stroke="#3c79b6" stroke-width="1.51"/><path d="M1124,951L1104,511L901,847Z" fill="#3172ae" stroke="#3172ae" stroke-width="1.51"/><path d="M184,911L212,1168L532,1168Z" fill="#3675b2" stroke="#3675b2" stroke-width="1.51"/><path d="M532,1168L1137,1234L1001,1191Z" fill="#2a6da8" stroke="#2a6da8" stroke-width="1.51"/><path d="M1104,511L826,238L816,645Z" fill="#3a78b4" stroke="#3a78b4" stroke-width="1.51"/><path d="M1001,1191L1137,1234L1124,951Z" fill="#276ba7" stroke="#276ba7" stroke-width="1.51"/><path d="M1444,170L1101,203L1104,511Z" fill="#3877b4" stroke="#3877b4" stroke-width="1.51"/><path d="M-139,1335L1137,1234L532,1168Z" fill="#2f70ad" stroke="#2f70ad" stroke-width="1.51"/><path d="M826,238L587,204L607,618Z" fill="#407dba" stroke="#407dba" stroke-width="1.51"/><path d="M825,-145L439,35L587,204Z" fill="#4783c0" stroke="#4783c0" stroke-width="1.51"/><path d="M1104,511L1101,203L826,238Z" fill="#3c7ab6" stroke="#3c7ab6" stroke-width="1.51"/><path d="M1484,830L1104,511L1124,951Z" fill="#2e6fab" stroke="#2e6fab" stroke-width="1.51"/><path d="M293,525L-122,598L184,911Z" fill="#417fbb" stroke="#417fbb" stroke-width="1.51"/><path d="M184,911L-209,1063L212,1168Z" fill="#3b7ab5" stroke="#3b7ab5" stroke-width="1.51"/><path d="M587,204L119,341L293,525Z" fill="#4581be" stroke="#4581be" stroke-width="1.51"/><path d="M1540,1250L1484,830L1124,951Z" fill="#256aa5" stroke="#256aa5" stroke-width="1.51"/><path d="M587,204L439,35L119,341Z" fill="#4884c0" stroke="#4884c0" stroke-width="1.51"/><path d="M825,-145L587,204L826,238Z" fill="#4481bd" stroke="#4481bd" stroke-width="1.51"/><path d="M119,341L-122,598L293,525Z" fill="#4682bf" stroke="#4682bf" stroke-width="1.51"/><path d="M1484,830L1517,547L1104,511Z" fill="#2e70ac" stroke="#2e70ac" stroke-width="1.51"/><path d="M-122,598L-209,1063L184,911Z" fill="#417eba" stroke="#417eba" stroke-width="1.51"/><path d="M1137,1234L1540,1250L1124,951Z" fill="#2469a5" stroke="#2469a5" stroke-width="1.51"/><path d="M1484,830L1808,710L1517,547Z" fill="#286ca8" stroke="#286ca8" stroke-width="1.51"/><path d="M1301,-93L825,-145L1101,203Z" fill="#417eba" stroke="#417eba" stroke-width="1.51"/><path d="M1101,203L825,-145L826,238Z" fill="#417ebb" stroke="#417ebb" stroke-width="1.51"/><path d="M-209,1063L-139,1335L212,1168Z" fill="#3a79b4" stroke="#3a79b4" stroke-width="1.51"/><path d="M212,1168L-139,1335L532,1168Z" fill="#3575b1" stroke="#3575b1" stroke-width="1.51"/><path d="M1137,1234L1820,1317L1540,1250Z" fill="#1b64a0" stroke="#1b64a0" stroke-width="1.51"/><path d="M1517,547L1444,170L1104,511Z" fill="#3474b0" stroke="#3474b0" stroke-width="1.51"/><path d="M-513,886L-316,1202L-209,1063Z" fill="#427fbb" stroke="#427fbb" stroke-width="1.51"/><path d="M119,341L-150,261L-122,598Z" fill="#4a86c2" stroke="#4a86c2" stroke-width="1.51"/><path d="M177,-145L-150,261L119,341Z" fill="#4d88c5" stroke="#4d88c5" stroke-width="1.51"/><path d="M177,-145L119,341L439,35Z" fill="#4c87c4" stroke="#4c87c4" stroke-width="1.51"/><path d="M-209,1063L-316,1202L-139,1335Z" fill="#3c7bb7" stroke="#3c7bb7" stroke-width="1.51"/><path d="M-513,886L-209,1063L-122,598Z" fill="#4481bd" stroke="#4481bd" stroke-width="1.51"/><path d="M531,-360L177,-145L439,35Z" fill="#4e8ac6" stroke="#4e8ac6" stroke-width="1.51"/><path d="M1444,170L1301,-93L1101,203Z" fill="#3c7ab6" stroke="#3c7ab6" stroke-width="1.51"/><path d="M1517,547L1965,185L1444,170Z" fill="#3172ae" stroke="#3172ae" stroke-width="1.51"/><path d="M1444,170L1504,-138L1301,-93Z" fill="#3c7ab7" stroke="#3c7ab7" stroke-width="1.51"/><path d="M1828,963L1808,710L1484,830Z" fill="#2368a4" stroke="#2368a4" stroke-width="1.51"/><path d="M1540,1250L1828,963L1484,830Z" fill="#2067a2" stroke="#2067a2" stroke-width="1.51"/><path d="M-150,261L-457,546L-122,598Z" fill="#4b87c3" stroke="#4b87c3" stroke-width="1.51"/><path d="M-533,312L-457,546L-150,261Z" fill="#4f8ac7" stroke="#4f8ac7" stroke-width="1.51"/><path d="M996,-454L531,-360L825,-145Z" fill="#4c87c4" stroke="#4c87c4" stroke-width="1.51"/><path d="M825,-145L531,-360L439,35Z" fill="#4b87c3" stroke="#4b87c3" stroke-width="1.51"/><path d="M-457,546L-513,886L-122,598Z" fill="#4985c2" stroke="#4985c2" stroke-width="1.51"/><path d="M1301,-93L1146,-315L825,-145Z" fill="#4481bd" stroke="#4481bd" stroke-width="1.51"/><path d="M1540,1250L1820,1317L1828,963Z" fill="#18629e" stroke="#18629e" stroke-width="1.51"/><path d="M-139,1335L1820,1317L1137,1234Z" fill="#266ba6" stroke="#266ba6" stroke-width="1.51"/><path d="M1301,-93L1504,-138L1146,-315Z" fill="#417eba" stroke="#417eba" stroke-width="1.51"/><path d="M1862,-26L1504,-138L1444,170Z" fill="#3878b4" stroke="#3878b4" stroke-width="1.51"/><path d="M-141,-463L-221,-95L177,-145Z" fill="#5790cd" stroke="#5790cd" stroke-width="1.51"/><path d="M177,-145L-221,-95L-150,261Z" fill="#528cc9" stroke="#528cc9" stroke-width="1.51"/><path d="M1570,-490L996,-454L1146,-315Z" fill="#4783c0" stroke="#4783c0" stroke-width="1.51"/><path d="M1146,-315L996,-454L825,-145Z" fill="#4884c1" stroke="#4884c1" stroke-width="1.51"/><path d="M-221,-95L-533,312L-150,261Z" fill="#528dc9" stroke="#528dc9" stroke-width="1.51"/><path d="M-457,546L-533,312L-513,886Z" fill="#4d88c5" stroke="#4d88c5" stroke-width="1.51"/><path d="M531,-360L128,-490L177,-145Z" fill="#548ecb" stroke="#548ecb" stroke-width="1.51"/><path d="M996,-454L128,-490L531,-360Z" fill="#518cc9" stroke="#518cc9" stroke-width="1.51"/><path d="M1820,1317L1965,185L1828,963Z" fill="#2067a2" stroke="#2067a2" stroke-width="1.51"/><path d="M1828,963L1965,185L1808,710Z" fill="#266aa6" stroke="#266aa6" stroke-width="1.51"/><path d="M1808,710L1965,185L1517,547Z" fill="#2b6ea9" stroke="#2b6ea9" stroke-width="1.51"/><path d="M1965,185L1862,-26L1444,170Z" fill="#3474b0" stroke="#3474b0" stroke-width="1.51"/><path d="M1504,-138L1570,-490L1146,-315Z" fill="#427fbc" stroke="#427fbc" stroke-width="1.51"/><path d="M128,-490L-141,-463L177,-145Z" fill="#5791ce" stroke="#5791ce" stroke-width="1.51"/><path d="M-221,-95L-559,-155L-533,312Z" fill="#5791ce" stroke="#5791ce" stroke-width="1.51"/><path d="M1869,-333L1570,-490L1504,-138Z" fill="#3f7cb9" stroke="#3f7cb9" stroke-width="1.51"/><path d="M996,-454L1570,-490L128,-490Z" fill="#4d89c5" stroke="#4d89c5" stroke-width="1.51"/><path d="M-546,-369L-559,-155L-221,-95Z" fill="#5b95d2" stroke="#5b95d2" stroke-width="1.51"/><path d="M-533,312L-559,-155L-513,886Z" fill="#528dc9" stroke="#528dc9" stroke-width="1.51"/><path d="M1862,-26L1869,-333L1504,-138Z" fill="#3a79b5" stroke="#3a79b5" stroke-width="1.51"/><path d="M1965,185L1869,-333L1862,-26Z" fill="#3575b1" stroke="#3575b1" stroke-width="1.51"/><path d="M-141,-463L-546,-369L-221,-95Z" fill="#5b95d2" stroke="#5b95d2" stroke-width="1.51"/></svg>