<?xml version="1.0" encoding="UTF-8" ?>
<!DOCTYPE svg PUBLIC "-//W3C//DTD SVG 1.1//EN" "http://www.w3.org/Graphics/SVG/1.1/DTD/svg11.dtd">
<svg width="960pt" height="445pt" viewBox="0 0 960 445" version="1.1" xmlns="http://www.w3.org/2000/svg">
<g id="#ffffffff">
<path fill="#ffffff" opacity="1.00" d=" M 133.88 48.98 C 136.72 45.53 141.80 48.71 142.42 52.36 C 144.86 79.87 146.13 107.42 148.00 134.98 C 149.12 140.22 147.34 146.54 150.90 150.98 C 153.33 145.93 152.76 138.14 158.93 135.91 C 163.75 132.63 169.39 137.01 174.46 134.49 C 187.21 130.89 187.55 114.22 197.91 107.89 C 202.30 105.01 208.03 107.12 211.31 110.67 C 216.69 117.70 219.52 126.73 226.50 132.48 C 229.48 135.11 233.67 133.64 236.95 135.41 C 237.79 135.36 239.47 135.26 240.31 135.21 C 239.38 137.46 238.45 139.70 237.60 141.98 C 231.60 141.77 225.52 140.63 220.20 137.75 C 211.87 131.84 209.85 120.77 202.36 114.14 C 196.23 121.01 193.50 130.37 186.55 136.55 C 179.84 141.91 170.85 141.75 162.73 141.43 C 157.49 151.58 158.12 163.56 154.07 174.06 C 151.71 178.89 145.65 177.49 144.01 172.93 C 140.02 144.94 140.69 116.44 136.93 88.44 C 133.92 113.53 132.92 138.87 128.97 163.85 C 127.97 168.30 121.65 170.17 118.92 166.05 C 115.09 158.44 116.99 148.53 110.98 141.86 C 105.08 141.40 99.13 141.59 93.25 142.26 C 64.42 142.38 35.58 142.24 6.75 142.31 C 5.12 140.09 3.16 136.07 7.19 135.27 C 34.76 135.77 62.34 135.38 89.91 135.49 C 89.69 134.88 89.26 133.68 89.04 133.07 C 89.28 133.66 89.77 134.82 90.02 135.41 C 99.12 135.81 108.26 135.13 117.34 135.59 C 120.55 137.93 121.56 142.02 123.36 145.37 C 126.57 140.47 125.07 134.48 126.32 129.06 C 128.35 107.75 129.32 86.38 130.96 65.03 C 132.17 59.79 130.15 53.39 133.88 48.98 Z" />
<path fill="#ffffff" opacity="1.00" d=" M 269.40 71.96 C 270.50 72.30 271.59 72.72 272.18 73.80 C 287.69 94.14 303.38 114.36 318.81 134.77 C 292.95 136.16 266.92 135.22 241.00 135.24 C 250.08 113.99 260.21 93.18 269.40 71.96 Z" />
<path fill="#ffffff" opacity="1.00" d=" M 237.60 141.98 C 265.02 141.78 292.55 141.08 319.96 142.26 C 280.31 224.27 242.32 307.08 202.16 388.83 C 189.12 360.74 177.47 332.00 164.38 303.93 C 188.75 249.93 213.54 196.11 237.60 141.98 Z" />
<path fill="#ffffff" opacity="1.00" d=" M 342.40 226.40 C 373.83 214.60 414.30 219.50 436.75 246.26 C 453.25 265.40 455.87 291.84 454.75 316.09 C 418.63 316.11 382.50 316.07 346.38 316.11 C 345.53 328.22 350.33 341.50 361.42 347.58 C 376.48 356.11 400.39 351.90 406.73 334.25 C 422.45 334.17 438.18 334.22 453.91 334.23 C 452.15 345.46 447.38 356.27 439.77 364.77 C 426.54 379.69 406.60 386.90 387.11 388.45 C 365.06 390.24 341.36 386.38 323.63 372.33 C 307.42 359.75 298.63 339.68 296.46 319.63 C 294.22 298.89 296.44 277.01 306.46 258.42 C 314.16 243.93 327.11 232.35 342.40 226.40 M 359.81 262.78 C 352.13 268.05 347.92 277.14 347.05 286.23 C 366.55 286.26 386.06 286.25 405.56 286.24 C 405.01 279.27 402.84 272.21 398.10 266.92 C 388.79 256.22 371.26 254.69 359.81 262.78 Z" />
<path fill="#ffffff" opacity="1.00" d=" M 828.61 243.62 C 844.61 228.61 867.83 225.07 888.97 225.67 C 906.53 226.29 925.01 230.59 938.39 242.63 C 948.37 251.44 953.59 264.73 953.67 277.92 C 938.26 277.99 922.86 277.90 907.46 277.96 C 906.68 260.57 884.50 256.10 871.32 262.31 C 864.91 264.71 860.91 273.52 865.86 279.11 C 872.55 286.00 882.88 286.19 891.67 288.34 C 909.66 292.42 929.37 293.85 944.56 305.38 C 963.75 320.58 961.22 352.38 944.57 368.57 C 927.07 385.75 900.93 389.72 877.38 388.51 C 859.79 387.53 841.44 383.00 827.95 371.08 C 817.87 362.33 812.15 349.32 811.29 336.11 C 827.65 336.06 844.02 336.11 860.38 336.09 C 861.37 345.64 869.70 352.83 878.98 353.93 C 886.87 355.06 895.61 354.90 902.60 350.63 C 907.45 347.75 909.46 340.65 906.05 335.96 C 903.17 332.32 898.46 330.94 894.18 329.75 C 881.62 326.84 868.90 324.62 856.36 321.62 C 842.69 318.07 828.77 311.33 821.08 298.96 C 810.68 281.74 813.90 257.42 828.61 243.62 Z" />
<path fill="#ffffff" opacity="1.00" d=" M 554.57 234.62 C 564.55 226.34 578.87 225.20 590.94 228.89 C 590.95 243.77 590.92 258.64 590.96 273.51 C 576.84 268.71 558.45 268.97 547.92 280.94 C 542.31 287.56 540.43 296.50 540.39 304.99 C 540.36 333.33 540.39 361.66 540.37 390.00 C 522.92 390.00 505.46 390.00 488.00 390.00 C 488.00 336.42 487.99 282.85 488.01 229.27 C 504.97 229.28 521.94 229.28 538.90 229.27 C 539.04 239.69 538.65 250.12 539.11 260.53 C 542.80 251.17 546.31 241.04 554.57 234.62 Z" />
<path fill="#ffffff" opacity="1.00" d=" M 623.40 229.31 C 640.31 229.31 657.21 229.31 674.12 229.31 C 674.15 259.22 674.09 289.12 674.15 319.03 C 674.11 328.20 677.25 338.46 685.66 343.27 C 695.55 348.72 709.42 347.88 717.47 339.49 C 723.19 333.56 725.30 325.05 725.24 317.00 C 725.25 287.77 725.24 258.54 725.25 229.31 C 742.10 229.31 758.96 229.31 775.81 229.31 C 775.82 281.21 775.81 333.12 775.81 385.03 C 759.43 385.03 743.04 385.03 726.66 385.03 C 726.50 375.00 726.96 364.96 726.40 354.96 C 721.53 366.83 714.12 378.70 701.75 383.82 C 679.17 393.03 649.73 387.22 634.78 367.18 C 626.58 356.31 623.32 342.44 623.41 329.00 C 623.40 295.77 623.41 262.54 623.40 229.31 Z" />
</g>
<g id="#ffb400ff">
<path fill="#ffb400" opacity="1.00" d=" M 57.20 73.21 C 58.40 71.98 59.42 69.58 61.53 70.36 C 70.56 91.30 80.07 112.08 89.04 133.07 C 89.26 133.68 89.69 134.88 89.91 135.49 C 62.34 135.38 34.76 135.77 7.19 135.27 C 23.50 114.31 40.53 93.89 57.20 73.21 Z" />
<path fill="#ffb400" opacity="1.00" d=" M 318.81 134.77 L 319.40 134.67 C 322.37 136.36 322.26 140.05 319.96 142.26 C 292.55 141.08 265.02 141.78 237.60 141.98 C 238.45 139.70 239.38 137.46 240.31 135.21 L 241.00 135.24 C 266.92 135.22 292.95 136.16 318.81 134.77 Z" />
<path fill="#ffb400" opacity="1.00" d=" M 6.75 142.31 C 35.58 142.24 64.42 142.38 93.25 142.26 C 116.77 196.23 140.61 250.08 164.38 303.93 C 177.47 332.00 189.12 360.74 202.16 388.83 C 178.82 389.89 155.38 388.94 132.00 389.32 C 130.03 389.13 127.28 389.91 126.02 387.92 C 86.23 306.07 46.67 224.10 6.75 142.31 Z" />
</g>
</svg>
